<?xml version="1.0" encoding="utf-8"?>
<!-- Generator: Adobe Illustrator 27.6.1, SVG Export Plug-In . SVG Version: 6.00 Build 0)  -->
<svg version="1.1" id="Capa_1" xmlns="http://www.w3.org/2000/svg" xmlns:xlink="http://www.w3.org/1999/xlink" x="0px" y="0px"
	 viewBox="0 0 16 16" style="enable-background:new 0 0 16 16;" xml:space="preserve">
<g>
	<path d="M12.6,14.3H3.4c-1,0-1.5,0-2-0.3c-0.4-0.2-0.8-0.6-1-1c-0.3-0.5-0.3-1-0.3-2V5c0-1,0-1.5,0.3-2c0.2-0.4,0.6-0.8,1-1
		c0.5-0.3,1-0.3,2-0.3h9.2c1,0,1.5,0,2,0.3c0.4,0.2,0.8,0.6,1,1c0.3,0.5,0.3,1,0.3,2v6c0,1,0,1.5-0.3,2c-0.2,0.4-0.6,0.8-1,1
		C14.1,14.3,13.6,14.3,12.6,14.3z M1.7,6.4V11c0,0.7,0,1.1,0.1,1.3c0.1,0.1,0.2,0.3,0.3,0.3c0.2,0.1,0.6,0.1,1.3,0.1h9.2
		c0.7,0,1.1,0,1.3-0.1c0.1-0.1,0.3-0.2,0.3-0.3c0.1-0.2,0.1-0.6,0.1-1.3V6.4H1.7z M1.7,4.8h12.7c0-0.6,0-1-0.1-1.2
		c-0.1-0.1-0.2-0.3-0.3-0.3c-0.2-0.1-0.6-0.1-1.3-0.1H3.4c-0.7,0-1.1,0-1.3,0.1C2,3.4,1.8,3.5,1.8,3.7C1.7,3.8,1.7,4.2,1.7,4.8z
		 M5.6,11.2H4c-0.4,0-0.8-0.4-0.8-0.8S3.6,9.6,4,9.6h1.6c0.4,0,0.8,0.4,0.8,0.8S6.1,11.2,5.6,11.2z"/>
</g>
</svg>
