<?xml version="1.0" encoding="utf-8"?>
<!-- Generator: Adobe Illustrator 27.6.1, SVG Export Plug-In . SVG Version: 6.00 Build 0)  -->
<svg version="1.1" id="Icons" xmlns="http://www.w3.org/2000/svg" xmlns:xlink="http://www.w3.org/1999/xlink" x="0px" y="0px"
	 viewBox="0 0 32 32" style="enable-background:new 0 0 32 32;" xml:space="preserve">
<style type="text/css">
	.st0{fill:#FF3533;stroke:#FF3533;stroke-width:0.9836;stroke-miterlimit:10;}
</style>
<g>
	<g>
		<path class="st0" d="M10.2,21.3c-1.2,0-2.3-0.1-3.3-0.4c-3.8-1.2-6.1-3.8-6.1-7.1c0-4.3,7.2-7.7,16.7-7.7c4.6,0,8.8,0.8,11.8,2.2
			c1.6,0.7,2.3,2.2,2,3.7c-0.3,1.4-1.6,2.9-3.7,3h-1.4c-1.8,0-3.5,0.7-4.9,1.8c-1.9,1.4-4.1,3-6.8,3.9C13,21.1,11.7,21.3,10.2,21.3z
			 M17.4,8.3c-8.6,0-14.6,2.9-14.6,5.5c0,2.3,1.7,4.1,4.5,4.9c2,0.6,4.3,0.6,6.4-0.2c2.4-0.8,4.3-2.2,6.1-3.5c1.8-1.4,4-2.2,6.2-2.2
			h1.4c1,0,1.6-0.7,1.7-1.2c0-0.2,0.1-0.9-0.8-1.3l0,0C25.6,8.9,21.7,8.3,17.4,8.3z"/>
	</g>
	<g>
		<path class="st0" d="M11.1,17.1c-2.9,0-4.9-1.4-4.9-3.2s2.1-3.2,4.9-3.2S16,12,16,13.8S13.9,17.1,11.1,17.1z M11.1,12.7
			c-1.8,0-2.8,0.8-2.8,1.1s1,1.1,2.8,1.1s2.8-0.8,2.8-1.1C13.8,13.4,12.9,12.7,11.1,12.7z"/>
	</g>
	<g>
		<path class="st0" d="M10.2,26.7c-1.2,0-2.3-0.1-3.3-0.4c-3.8-1-6.1-3.6-6.1-7v-5.5c0-0.7,0.4-1.1,1.1-1.1s1.1,0.4,1.1,1.1v5.5
			c0,1.1,0.4,3.8,4.5,4.8c2.1,0.7,4.2,0.6,6.5-0.1c2.1-0.7,4-1.8,6.1-3.5c1.7-1.4,3.9-2.2,6.2-2.2h1.4c0.9,0,1.6-0.7,1.6-1.2v-5.4
			c0-0.7,0.4-1.1,1.1-1.1s1.1,0.4,1.1,1.1v5.5c-0.1,1.7-1.6,3.2-3.7,3.2h-1.4c-1.8,0-3.6,0.7-4.9,1.8c-2.3,2-4.5,3.1-6.8,3.9
			C13,26.4,11.7,26.7,10.2,26.7z"/>
	</g>
</g>
</svg>
