<?xml version="1.0" encoding="utf-8"?>
<!-- Generator: Adobe Illustrator 27.6.1, SVG Export Plug-In . SVG Version: 6.00 Build 0)  -->
<svg version="1.1" id="Capa_1" xmlns="http://www.w3.org/2000/svg" xmlns:xlink="http://www.w3.org/1999/xlink" x="0px" y="0px"
	 viewBox="0 0 800 800" style="enable-background:new 0 0 800 800;" xml:space="preserve">
<style type="text/css">
	.st0{fill:#FF3533;}
</style>
<g>
	<g>
		<path class="st0" d="M459,59.8c-30.5-30.5-78.5-32-111.2-5.3c-2.2,1.8-4.5,3.3-6.5,5.3L12.2,389c-16.3,16.3-16.3,42.7,0,58.9
			c2,2,4.2,3.8,6.5,5.3c6.9,4.6,14.9,6.9,22.9,6.9s13.9-2.5,20.8-7.1c2.3-1.5,3.2-3.1,5.2-5.1l23.7-27.2V611
			c0,83.9,81,153.3,168.7,153.3h293.3c86,0,149.1-68,149.1-153.3V427.8l23.5,20.1c8.1,8.1,20.5,12.2,31.2,12.2s22.2-4.1,30.3-12.2
			c16.3-16.3,16.7-42.7,0.4-58.9L459,59.8z M619.2,611c0,39.4-25.7,70-65.8,70H260.2c-41.8,0-85.4-32-85.4-70V337.4l218.7-218.7
			l225.7,225.7V611z"/>
		<path class="st0" d="M238.7,434.5c0,3.1,0.2,6.2,0.5,9.3c0.5,5.5,1.6,10.8,3,15.9c0.2,0.9,0.4,1.8,0.7,2.6c0.2,0.7,0.4,1.3,0.7,2
			c26.7,85.4,156.9,152.2,156.9,152.2s130.2-66.8,156.9-152.2c0.2-0.7,0.5-1.3,0.7-2c0.2-0.9,0.4-1.7,0.7-2.6
			c1.4-5.2,2.5-10.5,3-15.9c0.3-3.1,0.5-6.2,0.5-9.3c0-52.9-42.9-95.8-95.8-95.8c-25.6,0-48.7,10.1-65.9,26.4
			c-17.2-16.3-40.3-26.4-65.9-26.4C281.6,338.7,238.7,381.6,238.7,434.5z"/>
	</g>
</g>
</svg>
