<?xml version="1.0" encoding="utf-8"?>
<!-- Generator: Adobe Illustrator 27.6.1, SVG Export Plug-In . SVG Version: 6.00 Build 0)  -->
<svg version="1.1" id="Capa_1" xmlns="http://www.w3.org/2000/svg" xmlns:xlink="http://www.w3.org/1999/xlink" x="0px" y="0px"
	 viewBox="0 0 800 800" style="enable-background:new 0 0 800 800;" xml:space="preserve">
<style type="text/css">
	.st0{fill:#FF3533;}
</style>
<g>
	<path class="st0" d="M280.7,797c-0.2,0-0.5,0-0.8,0H42.2c-21.9,0-39.7-17.8-39.7-39.7c0-21.9,17.8-39.7,39.7-39.7h188.9
		l-68.8-309.4c-3-13.2,1.1-27.1,10.7-36.7L284.4,260c-23.7-27.6-36.6-62.4-36.6-99.1c0-40.7,15.9-78.8,44.6-107.6
		c59.4-59.4,155.9-59.4,215.3,0l67.9,67.9h182.3c16.1,0,30.5,9.7,36.7,24.6c6.2,14.9,2.7,32-8.6,43.3l-80.9,80.9
		c20.9,24.7,32.9,56.4,32.9,89.8c0,76.7-62.4,139.2-139.2,139.2c-33.4,0-65.1-11.9-89.8-32.8L428.1,547
		c-11.3,11.3-28.5,14.8-43.3,8.6c-14.9-6.2-24.6-20.6-24.6-36.7V336.3l-19.9-19.8l-95.7,95.7l67.9,305.4h206.7
		c21.9,0,39.7,17.8,39.7,39.7c0,21.9-17.8,39.7-39.7,39.7H281.4C281.2,797,281,797,280.7,797z M400,88.2c-18.6,0-37.2,7-51.4,21.2
		c-13.7,13.7-21.4,32-21.4,51.4s7.5,37.7,21.4,51.4l79.6,79.6c7.5,7.5,11.7,17.5,11.7,28.1v102.8l42.9-42.9c0.5-0.5,0.8-1,1.3-1.3
		L617.7,245c0.4-0.5,0.8-0.8,1.3-1.3l42.9-42.9H559.1c-10.5,0-20.6-4.2-28.1-11.7l-79.6-79.6C437.2,95.3,418.6,88.2,400,88.2z
		 M565.7,409.2c9.7,6.4,21.1,10,33.2,10c32.9,0,59.6-26.7,59.6-59.6c0-12-3.6-23.5-10-33.2L565.7,409.2z"/>
</g>
</svg>
