<?xml version="1.0" encoding="utf-8"?>
<!-- Generator: Adobe Illustrator 27.6.1, SVG Export Plug-In . SVG Version: 6.00 Build 0)  -->
<svg version="1.1" id="Capa_1" xmlns="http://www.w3.org/2000/svg" xmlns:xlink="http://www.w3.org/1999/xlink" x="0px" y="0px"
	 viewBox="0 0 800 800" style="enable-background:new 0 0 800 800;" xml:space="preserve">
<style type="text/css">
	.st0{fill:#FF3533;}
</style>
<g id="Interface__x2F__Shopping_x5F_Cart_x5F_01">
	<g id="Vector">
		<path class="st0" d="M587.2,773c-61.7,0-111.9-50.2-111.9-111.9c0-13.1,2.2-25.6,6.4-37.3H357c4.1,11.6,6.4,24.3,6.4,37.3
			c0,61.7-50.2,111.9-111.9,111.9s-111.9-50.2-111.9-111.9c0-46,28-85.7,67.8-102.8c-0.8-3.4-1.5-6.8-2.4-10.5l-91.8-428.5
			c-1.5-6.5-2.9-13.8-4-17.3c-3.6-0.3-10.9-0.3-17.9-0.3H64.9c-20.6,0-37.3-16.7-37.3-37.3S44.4,27,64.9,27h26.4
			c20.1,0,33.5,0,47.7,6.2c12.4,5.4,23.3,14.1,31.1,25.2c9,12.6,11.8,25.6,16,45.3l7.5,35.3H657c31.8,0,51,0,69,11.2
			c15.9,9.8,27.4,25.2,32.5,43.2c5.8,20.5,0.4,38.9-8.4,69.5l-51.7,179.1c-5.3,18.1-8.7,30.2-17.8,41.6c-7.9,10.1-18.5,18-30.4,22.9
			c-13.5,5.5-26,5.5-44.9,5.5H273.7l4.4,20.1c1.5,6.6,2.9,13.3,3.9,16.8c3.7,0.3,10.9,0.3,17.9,0.3h287.5h0.1
			c61.7,0.1,111.8,50.2,111.8,111.9C699.1,722.9,648.9,773,587.2,773z M587.2,623.8c-20.6,0-37.3,16.8-37.3,37.3
			s16.8,37.3,37.3,37.3c20.6,0,37.3-16.8,37.3-37.3S607.7,623.8,587.2,623.8z M251.5,623.8c-20.6,0-37.3,16.8-37.3,37.3
			s16.8,37.3,37.3,37.3c20.6,0,37.3-16.8,37.3-37.3S272,623.8,251.5,623.8z M280.2,548.7L280.2,548.7L280.2,548.7z M257.7,437.3
			h347.9c6.5,0,13.1,0,16.6-0.2c1.2-3.2,3.1-10,4.9-15.9l51.7-179.1c3-10.4,6.3-21.9,7.4-28c-6-0.6-17.7-0.6-29-0.6H209.6
			L257.7,437.3z M689.1,214.6L689.1,214.6L689.1,214.6z M686.4,211L686.4,211L686.4,211z M108.6,100.3L108.6,100.3L108.6,100.3z"/>
	</g>
</g>
</svg>
