<?xml version="1.0" encoding="utf-8"?>
<!-- Generator: Adobe Illustrator 27.6.1, SVG Export Plug-In . SVG Version: 6.00 Build 0)  -->
<svg version="1.1" id="Capa_1" xmlns="http://www.w3.org/2000/svg" xmlns:xlink="http://www.w3.org/1999/xlink" x="0px" y="0px"
	 viewBox="0 0 800 800" style="enable-background:new 0 0 800 800;" xml:space="preserve">
<style type="text/css">
	.st0{fill:#FF3533;stroke:#FF3533;stroke-width:21.3935;stroke-miterlimit:10;}
</style>
<path class="st0" d="M654.5,673.6h-509c-17.5,0-31.8,14.3-31.8,31.8s14.3,31.8,31.8,31.8l0,0h508.9c17.5,0,31.8-14.3,31.8-31.8
	C686.2,687.8,672,673.6,654.5,673.6L654.5,673.6z M705.3,62.9H94.7C49,63,12,99.9,12,145.5v407.2c0,45.7,37,82.7,82.7,82.7h610.7
	c45.7,0,82.7-37,82.7-82.7V145.5C788,99.8,751,62.9,705.3,62.9L705.3,62.9z M724.5,552.7c0,10.5-8.6,19.2-19.2,19.2H94.7
	c-10.5,0-19.2-8.6-19.2-19.2V145.5c0-10.6,8.6-19.1,19.2-19.2h610.7c10.5,0,19.2,8.6,19.2,19.2l0,0V552.7z"/>
</svg>
