<?xml version="1.0" encoding="utf-8"?>
<!-- Generator: Adobe Illustrator 27.6.1, SVG Export Plug-In . SVG Version: 6.00 Build 0)  -->
<svg version="1.1" id="Capa_1" xmlns="http://www.w3.org/2000/svg" xmlns:xlink="http://www.w3.org/1999/xlink" x="0px" y="0px"
	 viewBox="0 0 800 800" style="enable-background:new 0 0 800 800;" xml:space="preserve">
<style type="text/css">
	.st0{fill-rule:evenodd;clip-rule:evenodd;fill:#1B32FF;}
</style>
<g id="Page-1">
	<g id="Dribbble-Light-Preview" transform="translate(-260.000000, -4563.000000)">
		<g id="icons" transform="translate(56.000000, 160.000000)">
			<path id="view_x5F_simple-_x5B__x23_815_x5D_" class="st0" d="M685.4,4803c0,46.7-36.4,84.5-81.4,84.5
				c-44.9,0-81.4-37.8-81.4-84.5c0-46.7,36.4-84.5,81.4-84.5C648.9,4718.6,685.4,4756.4,685.4,4803 M604,4962.6
				c-104.2,0-203.1-44.1-275.3-119.3c-21.6-22.5-21.6-58.1,0-80.6c72.2-75.2,171.2-119.3,275.3-119.3s203.1,44.1,275.3,119.3
				c21.6,22.5,21.6,58.1,0,80.6C807.1,4918.5,708.2,4962.6,604,4962.6 M604,4558.9c-160.7,0-302.3,84-387.1,211.7
				c-13,19.6-13,45.1,0,64.7c84.7,127.8,226.3,211.7,387.1,211.7c161,0,302.8-84.2,387.5-212.3c12.7-19.2,12.7-44.3,0-63.5
				C906.8,4643.2,765,4558.9,604,4558.9"/>
		</g>
	</g>
</g>
</svg>
