<?xml version="1.0" encoding="utf-8"?>
<!-- Generator: Adobe Illustrator 27.6.1, SVG Export Plug-In . SVG Version: 6.00 Build 0)  -->
<svg version="1.1" id="Layer_1" xmlns="http://www.w3.org/2000/svg" xmlns:xlink="http://www.w3.org/1999/xlink" x="0px" y="0px"
	 viewBox="0 0 800 800" style="enable-background:new 0 0 800 800;" xml:space="preserve">
<style type="text/css">
	.st0{fill:#2D527C;}
	.st1{fill:#16E0F8;}
</style>
<g>
	<path class="st0" d="M569.9,800c-3.1,0-6.2-0.6-9.1-1.8c-8.9-3.7-14.7-12.4-14.7-22V642.9c0-13.1,10.7-23.8,23.8-23.8h133.3
		c9.6,0,18.3,5.8,22,14.7s1.6,19.1-5.2,25.9L586.7,793C582.2,797.6,576.1,800,569.9,800z M593.7,666.7v52.1l52.1-52.1H593.7z"/>
	<path class="st0" d="M464.7,800H131.1c-32,0-58.1-26.1-58.1-58.1V58.1C73,26.1,99.1,0,131.1,0h537.7C700.9,0,727,26.1,727,58.1
		v584.8c0,6.3-2.5,12.4-7,16.8L586.7,793c-9.3,9.3-24.3,9.3-33.6,0s-9.3-24.4,0-33.6l126.3-126.3v-575c0-5.8-4.7-10.6-10.6-10.6
		H131.1c-5.8,0-10.6,4.7-10.6,10.6v683.7c0,5.8,4.7,10.6,10.6,10.6h333.6c13.1,0,23.8,10.7,23.8,23.8S477.8,800,464.7,800z"/>
</g>
<polygon class="st1" points="449.9,368.9 449.9,202.8 350,202.8 350,368.9 237.9,368.9 400,597.2 562.1,368.9 "/>
<path class="st0" d="M400,621c-7.7,0-14.9-3.7-19.4-10L218.5,382.7c-5.2-7.3-5.8-16.8-1.7-24.7c4.1-7.9,12.2-12.9,21.1-12.9h88.3
	V202.8c0-13.1,10.7-23.8,23.8-23.8h100c13.1,0,23.8,10.7,23.8,23.8v142.3h88.3c8.9,0,17,5,21.1,12.9s3.4,17.4-1.7,24.7L419.4,611
	C414.9,617.3,407.7,621,400,621z M284,392.7l116,163.4l116-163.4h-66.1c-13.1,0-23.8-10.7-23.8-23.8V226.6h-52.3v142.3
	c0,13.1-10.7,23.8-23.8,23.8H284L284,392.7z"/>
</svg>
