<?xml version="1.0" encoding="utf-8"?>
<!-- Generator: Adobe Illustrator 27.6.1, SVG Export Plug-In . SVG Version: 6.00 Build 0)  -->
<svg version="1.1" id="Layer_1" xmlns="http://www.w3.org/2000/svg" xmlns:xlink="http://www.w3.org/1999/xlink" x="0px" y="0px"
	 viewBox="0 0 512 512" style="enable-background:new 0 0 512 512;" xml:space="preserve">
<style type="text/css">
	.st0{fill:#2D527C;}
	.st1{fill:#16E0F8;}
</style>
<path class="st0" d="M342.1,495.5H44.6C20,495.5,0,475.5,0,450.9V61.1c0-24.6,20-44.6,44.6-44.6h297.5c24.6,0,44.6,20,44.6,44.6
	v128.6c0,8.4-6.8,15.2-15.2,15.2s-15.2-6.8-15.2-15.2V61.1c0-7.8-6.4-14.2-14.2-14.2H44.6c-7.8,0-14.2,6.4-14.2,14.2v389.9
	c0,7.8,6.4,14.2,14.2,14.2h297.5c7.8,0,14.2-6.4,14.2-14.2v-50.6c0-8.4,6.8-15.2,15.2-15.2s15.2,6.8,15.2,15.2v50.6
	C386.7,475.5,366.7,495.5,342.1,495.5z"/>
<rect x="107.5" y="98.6" class="st1" width="171.6" height="61.8"/>
<g>
	<path class="st0" d="M279.2,175.5H107.5c-8.4,0-15.2-6.8-15.2-15.2V98.6c0-8.4,6.8-15.2,15.2-15.2h171.6c8.4,0,15.2,6.8,15.2,15.2
		v61.8C294.3,168.7,287.5,175.5,279.2,175.5z M122.7,145.1H264v-31.4H122.7V145.1z"/>
	<path class="st0" d="M496.8,175.7c-3.9,0-7.8-1.5-10.7-4.4L446.8,132L416,162.8c-5.9,5.9-15.5,5.9-21.5,0c-5.9-5.9-5.9-15.5,0-21.5
		L436,99.7c5.9-5.9,15.5-5.9,21.5,0l50,50c5.9,5.9,5.9,15.5,0,21.5C504.6,174.2,500.7,175.7,496.8,175.7z"/>
</g>
<polygon class="st1" points="405.2,152 213.8,343.5 205.8,401.5 263.8,393.5 455.2,202.1 "/>
<g>
	<path class="st0" d="M205.8,416.7c-4,0-7.9-1.6-10.7-4.4c-3.4-3.4-5-8.1-4.3-12.8l8-58c0.5-3.3,2-6.3,4.3-8.7l191.4-191.4
		c2.8-2.8,6.7-4.4,10.7-4.4c4,0,7.9,1.6,10.7,4.4l50,50c5.9,5.9,5.9,15.5,0,21.5L274.5,404.3c-2.3,2.3-5.4,3.9-8.7,4.3l-58,8
		C207.2,416.7,206.5,416.7,205.8,416.7z M228.1,350.6l-4.6,33.1l33.1-4.6l177.1-177.1l-28.6-28.6L228.1,350.6z"/>
	<path class="st0" d="M205.8,416.7h-98.2c-8.4,0-15.2-6.8-15.2-15.2s6.8-15.2,15.2-15.2h98.2c8.4,0,15.2,6.8,15.2,15.2
		S214.2,416.7,205.8,416.7z"/>
</g>
</svg>
