<?xml version="1.0" encoding="utf-8"?>
<!-- Generator: Adobe Illustrator 27.6.1, SVG Export Plug-In . SVG Version: 6.00 Build 0)  -->
<svg version="1.1" id="Layer_1" xmlns="http://www.w3.org/2000/svg" xmlns:xlink="http://www.w3.org/1999/xlink" x="0px" y="0px"
	 viewBox="0 0 800 800" style="enable-background:new 0 0 800 800;" xml:space="preserve">
<style type="text/css">
	.st0{fill:#2D527C;}
	.st1{fill:#16E0F8;}
</style>
<path class="st0" d="M746.6,637.9H222c-12,0-21.8-9.7-21.8-21.8s9.7-21.8,21.8-21.8h524.6c5.4,0,9.9-5.3,9.9-11.8V217.4
	c0-6.5-4.4-11.8-9.9-11.8h-493c-5.4,0-9.9,5.3-9.9,11.8v262.2c0,12-9.7,21.8-21.8,21.8c-12,0-21.8-9.7-21.8-21.8V217.4
	c0-30.5,24-55.3,53.4-55.3h493c29.4,0,53.4,24.8,53.4,55.3v365.2C800,613.1,776.1,637.9,746.6,637.9z"/>
<path class="st1" d="M222,217.4L222,217.4c0,10.7,4.8,20.8,13,27.1l265.2,205.5l265.2-205.5c8.2-6.3,13-16.4,13-27.1l0,0
	c0-18.5-14.2-33.6-31.6-33.6h-493C236.2,183.8,222,198.8,222,217.4z"/>
<g>
	<path class="st0" d="M500.1,471.7c-4.7,0-9.4-1.5-13.3-4.6L221.6,261.7c-13.4-10.4-21.4-26.9-21.4-44.3c0-30.5,24-55.3,53.4-55.3
		h493c29.4,0,53.4,24.8,53.4,55.3c0,17.4-8,33.9-21.4,44.3L513.4,467.1C509.5,470.2,504.8,471.7,500.1,471.7z M253.6,205.6
		c-5.4,0-9.9,5.3-9.9,11.8c0,4,1.7,7.7,4.5,9.9l251.8,195.1l251.8-195.1c2.8-2.2,4.5-5.9,4.5-9.9c0-6.5-4.4-11.8-9.9-11.8H253.6
		L253.6,205.6z"/>
	<path class="st0" d="M219.8,305H21.8C9.7,305,0,295.2,0,283.2s9.7-21.8,21.8-21.8h198.1c12,0,21.8,9.7,21.8,21.8
		S231.8,305,219.8,305z"/>
	<path class="st0" d="M219.8,404H87.1c-12,0-21.8-9.7-21.8-21.8c0-12,9.7-21.8,21.8-21.8h132.8c12,0,21.8,9.7,21.8,21.8
		C241.6,394.2,231.8,404,219.8,404z"/>
	<path class="st0" d="M219.8,503h-67.5c-12,0-21.8-9.7-21.8-21.8s9.7-21.8,21.8-21.8h67.5c12,0,21.8,9.7,21.8,21.8
		S231.8,503,219.8,503z"/>
</g>
</svg>
