<?xml version="1.0" encoding="utf-8"?>
<!-- Generator: Adobe Illustrator 27.6.1, SVG Export Plug-In . SVG Version: 6.00 Build 0)  -->
<svg version="1.1" id="Layer_1" xmlns="http://www.w3.org/2000/svg" xmlns:xlink="http://www.w3.org/1999/xlink" x="0px" y="0px"
	 viewBox="0 0 800 800" style="enable-background:new 0 0 800 800;" xml:space="preserve">
<style type="text/css">
	.st0{fill:#2D527C;}
	.st1{fill:#16E0F8;}
</style>
<path class="st0" d="M495.7,608.4c-77.9,0-155.8-29.7-215.2-89c-9-9-9-23.5,0-32.4c9-9,23.5-9,32.4,0
	c100.8,100.8,264.7,100.8,365.4,0c49.5-49.5,76.4-115.4,75.7-185.5c-0.2-23.2-3.6-46.2-9.9-68.4c-3.5-12.2,3.6-24.9,15.8-28.4
	c12.2-3.5,24.9,3.6,28.4,15.8c7.5,26.2,11.4,53.2,11.7,80.5c0.9,82.5-30.8,160.1-89.1,218.4C651.6,578.7,573.6,608.4,495.7,608.4z
	 M225.2,404.6c-10,0-19.2-6.6-22.1-16.7c-30.3-106.3-0.7-220.8,77.4-298.9c118.6-118.6,311.7-118.6,430.3,0c9,9,9,23.5,0,32.4
	c-9,9-23.5,9-32.4,0C577.7,20.7,413.7,20.7,313,121.5c-66.3,66.3-91.5,163.6-65.7,253.9c3.5,12.2-3.6,24.9-15.8,28.4
	C229.4,404.4,227.3,404.6,225.2,404.6z"/>
<path class="st1" d="M364,435.9c-72.6-72.6-72.6-190.8,0-263.4s190.8-72.6,263.4,0s72.6,190.8,0,263.4S436.6,508.5,364,435.9z"/>
<g>
	<path class="st0" d="M495.7,513.3c-55.9,0-108.5-21.7-147.9-61.2s-61.2-92-61.2-147.9s21.7-108.5,61.2-147.9
		c39.5-39.5,92-61.2,147.9-61.2c55.9,0,108.5,21.7,147.9,61.2s61.2,92,61.2,147.9s-21.7,108.5-61.2,147.9
		C604.2,491.6,551.6,513.3,495.7,513.3z M495.7,141c-43.7,0-84.7,17-115.5,47.7c-30.8,30.8-47.7,71.8-47.7,115.5
		c0,43.7,17,84.7,47.7,115.5c30.8,30.8,71.8,47.7,115.5,47.7c43.7,0,84.7-17,115.5-47.7c30.8-30.8,47.7-71.8,47.7-115.5
		c0-43.7-17-84.7-47.7-115.5C580.4,157.9,539.4,141,495.7,141z"/>
	<path class="st0" d="M239.4,583.5c-5.9,0-11.7-2.2-16.2-6.7c-9-9-9-23.5,0-32.4l55.6-55.6c9-9,23.5-9,32.4,0c9,9,9,23.5,0,32.4
		l-55.6,55.6C251.1,581.2,245.3,583.5,239.4,583.5z"/>
	<path class="st0" d="M90.6,799.9c-5.9,0-11.7-2.2-16.2-6.7L6.7,725.5C2.4,721.2,0,715.4,0,709.3c0-6.1,2.4-11.9,6.7-16.2
		l179.9-179.9c4.3-4.3,10.1-6.7,16.2-6.7s11.9,2.4,16.2,6.7l67.7,67.7c9,9,9,23.5,0,32.4L106.9,793.2
		C102.4,797.7,96.5,799.9,90.6,799.9z M55.4,709.3l35.3,35.3L238.1,597l-35.3-35.3L55.4,709.3z"/>
</g>
</svg>
